<svg t="1586833937772" class="icon" viewBox="0 0 1024 1024" version="1.1" xmlns="http://www.w3.org/2000/svg" p-id="3274" width="200" height="200"><path d="M511.98976 92.17024C280.49408 92.17024 92.17024 280.50432 92.17024 512s188.32384 419.82976 419.81952 419.82976 419.84-188.33408 419.84-419.82976S743.48544 92.17024 511.98976 92.17024zM511.98976 890.86976c-208.896 0-378.85952-169.96352-378.85952-378.86976s169.96352-378.86976 378.85952-378.86976c208.91648 0 378.88 169.96352 378.88 378.86976S720.90624 890.86976 511.98976 890.86976zM632.77056 740.85376l0 55.58272c0 2.33472-1.90464 4.20864-4.1984 4.20864L424.52992 800.64512c-2.32448 0-4.1984-1.88416-4.1984-4.20864l0-55.58272c0-2.32448 1.88416-4.20864 4.1984-4.20864l58.7776 0 0-296.2432-59.38176 0c-2.32448 0-4.17792-1.88416-4.17792-4.18816l0-56.84224c0-2.33472 1.86368-4.1984 4.17792-4.1984l139.22304 0c2.32448 0 4.1984 1.87392 4.1984 4.1984l0 357.2736 61.22496 0C630.86592 736.64512 632.77056 738.52928 632.77056 740.85376zM447.3344 271.38048c0-35.34848 28.64128-64 64-64 35.33824 0 64 28.65152 64 64s-28.66176 64-64 64C475.96544 335.38048 447.3344 306.72896 447.3344 271.38048z" p-id="3275"></path></svg>